# xmcd CD database file
# Copyright (C) 1995-1998 Ti Kan
#
# Track frame offsets:
#	150
#	15224
#	28181
#	41619
#	56256
#	69929
#	86729
#	101153
#	115207
#	145883
#	164185
#	177836
#	195633
#	208331
#	220334
#	232281
#	245484
#	259908
#	271687
#	290314
#
# Disc length: 4057 seconds
#
# Revision: 1
# Processed by: cddbd v1.4PL0 Copyright (c) Steve Scherf et al.
# Submitted via: CDex 1.30Release
#
DISCID=2d0fd714
DTITLE=Kenny Dale - The Very Best Of
DYEAR=1999
DGENRE=Country
TTITLE0=Bluest Heartache Of The Year
TTITLE1=The Loser
TTITLE2=Shame, Shame On Me
TTITLE3=We Could Be Dancin'
TTITLE4=Two Hearts Tangled In Love
TTITLE5=Sweet Dreams
TTITLE6=When It's Just You And Me
TTITLE7=Second Hand Lovin' Hands
TTITLE8=Red Hot Memory
TTITLE9=Crazy
TTITLE10=Thank You Ever Lovin'
TTITLE11=Release Me
TTITLE12=Love Walked In Again
TTITLE13=Misty Blue
TTITLE14=Some Kind Of Wonderful
TTITLE15=Only Love Can Break A Heart
TTITLE16=Sharing
TTITLE17=Down To Earth Women
TTITLE18=Alabama Eyes
TTITLE19=For Love
EXTD=YEAR: 1999 ID3G:   2
EXTT0=
EXTT1=
EXTT2=
EXTT3=
EXTT4=
EXTT5=
EXTT6=
EXTT7=
EXTT8=
EXTT9=
EXTT10=
EXTT11=
EXTT12=
EXTT13=
EXTT14=
EXTT15=
EXTT16=
EXTT17=
EXTT18=
EXTT19=
PLAYORDER=
